<svg xmlns="http://www.w3.org/2000/svg" xmlns:xlink="http://www.w3.org/1999/xlink" width="726" zoomAndPan="magnify" viewBox="0 0 544.5 451.499982" height="602" preserveAspectRatio="xMidYMid meet" version="1.0"><defs><g/><clipPath id="c4122c32c6"><path d="M 73.9375 165.886719 L 470.613281 165.886719 L 470.613281 265.617188 L 73.9375 265.617188 Z M 73.9375 165.886719 " clip-rule="nonzero"/></clipPath><clipPath id="e6831f0fd5"><path d="M 91.566406 175.265625 L 282.027344 175.265625 L 282.027344 256.253906 L 91.566406 256.253906 Z M 91.566406 175.265625 " clip-rule="nonzero"/></clipPath></defs><g clip-path="url(#c4122c32c6)"><path stroke-linecap="butt" transform="matrix(0.749969, 0, 0, 0.750211, 73.938531, 165.888119)" fill="none" stroke-linejoin="miter" d="M -0.00137454 -0.00186606 L 528.921518 -0.00186606 L 528.921518 132.93473 L -0.00137454 132.93473 L -0.00137454 -0.00186606 " stroke="#000000" stroke-width="6" stroke-opacity="1" stroke-miterlimit="4"/></g><g clip-path="url(#e6831f0fd5)"><path fill="#000000" d="M 91.574219 175.265625 L 282.019531 175.265625 L 282.019531 256.253906 L 91.574219 256.253906 L 91.574219 175.265625 " fill-opacity="1" fill-rule="nonzero"/></g><g fill="#ffffff" fill-opacity="1"><g transform="translate(133.815449, 222.935191)"><g><path d="M 2.148438 0 L 3.980469 0 L 3.980469 -11.542969 L 12.132812 0 L 13.859375 0 L 13.859375 -14.742188 L 12.046875 -14.742188 L 12.046875 -3.203125 L 3.894531 -14.742188 L 2.148438 -14.742188 Z M 2.148438 0 "/></g></g></g><g fill="#ffffff" fill-opacity="1"><g transform="translate(151.41936, 222.935191)"><g><path d="M 5.898438 0 L 7.707031 0 L 7.707031 -5.308594 L 13.246094 -14.742188 L 11.164062 -14.742188 L 6.824219 -7.285156 L 4.90625 -10.613281 L 2.507812 -14.742188 L 0.359375 -14.742188 L 5.898438 -5.308594 Z M 5.898438 0 "/></g></g></g><g fill="#ffffff" fill-opacity="1"><g transform="translate(166.622781, 222.935191)"><g><path d="M 8.84375 0.273438 C 13.332031 0.273438 16.492188 -2.886719 16.492188 -7.371094 C 16.492188 -11.855469 13.332031 -15.015625 8.84375 -15.015625 C 4.359375 -15.015625 1.222656 -11.855469 1.222656 -7.371094 C 1.222656 -2.886719 4.359375 0.273438 8.84375 0.273438 Z M 3.117188 -7.371094 C 3.117188 -10.804688 5.453125 -13.164062 8.84375 -13.164062 C 12.234375 -13.164062 14.574219 -10.804688 14.574219 -7.371094 C 14.574219 -3.9375 12.234375 -1.578125 8.84375 -1.578125 C 5.453125 -1.578125 3.117188 -3.9375 3.117188 -7.371094 Z M 3.117188 -7.371094 "/></g></g></g><g fill="#ffffff" fill-opacity="1"><g transform="translate(185.911251, 222.935191)"><g><path d="M 8.71875 0.273438 C 13.246094 0.273438 16.300781 -3.160156 16.214844 -8.003906 L 8.214844 -8.003906 L 8.214844 -6.234375 L 14.214844 -6.234375 C 13.835938 -3.453125 11.730469 -1.578125 8.761719 -1.578125 C 5.453125 -1.578125 3.117188 -3.960938 3.117188 -7.371094 C 3.117188 -10.78125 5.433594 -13.164062 8.738281 -13.164062 C 11.015625 -13.164062 12.824219 -12.046875 13.753906 -10.152344 L 15.773438 -10.152344 C 14.828125 -13.058594 12.046875 -15.015625 8.675781 -15.015625 C 4.359375 -15.015625 1.222656 -11.792969 1.222656 -7.371094 C 1.222656 -2.925781 4.378906 0.273438 8.71875 0.273438 Z M 8.71875 0.273438 "/></g></g></g><g fill="#ffffff" fill-opacity="1"><g transform="translate(204.883871, 222.935191)"><g><path d="M 2.148438 0 L 4 0 L 4 -14.742188 L 2.148438 -14.742188 Z M 2.148438 0 "/></g></g></g><g fill="#ffffff" fill-opacity="1"><g transform="translate(212.633119, 222.935191)"><g><path d="M 2.148438 0 L 4 0 L 4 -11.289062 L 8.886719 -3.917969 L 10.402344 -3.917969 L 15.289062 -11.265625 L 15.289062 0 L 17.144531 0 L 17.144531 -14.742188 L 15.417969 -14.742188 L 9.667969 -6.003906 L 3.875 -14.742188 L 2.148438 -14.742188 Z M 2.148438 0 "/></g></g></g><g fill="#ffffff" fill-opacity="1"><g transform="translate(233.521922, 222.935191)"><g><path d="M 2.148438 0 L 4 0 L 4 -14.742188 L 2.148438 -14.742188 Z M 2.148438 0 "/></g></g></g><g fill="#000000" fill-opacity="1"><g transform="translate(315.87136, 222.935191)"><g><path d="M 8.59375 0.316406 C 13.667969 0.316406 16.847656 -3.371094 16.386719 -8.550781 L 7.855469 -8.550781 L 7.855469 -5.558594 L 11.921875 -5.558594 C 11.5 -4.316406 10.320312 -3.476562 8.636719 -3.476562 C 6.277344 -3.476562 4.90625 -5.140625 4.90625 -7.371094 C 4.90625 -9.6875 6.402344 -11.265625 8.59375 -11.265625 C 9.898438 -11.265625 11.015625 -10.699219 11.582031 -9.773438 L 16.113281 -9.773438 C 15.246094 -12.996094 12.257812 -15.058594 8.53125 -15.058594 C 3.894531 -15.058594 0.714844 -11.898438 0.714844 -7.371094 C 0.714844 -2.820312 3.917969 0.316406 8.59375 0.316406 Z M 8.59375 0.316406 "/></g></g></g><g fill="#000000" fill-opacity="1"><g transform="translate(332.969622, 222.935191)"><g><path d="M 1.558594 0 L 5.8125 0 L 5.8125 -14.742188 L 1.558594 -14.742188 Z M 1.558594 0 "/></g></g></g><g fill="#000000" fill-opacity="1"><g transform="translate(340.339565, 222.935191)"><g><path d="M 5.074219 0 L 9.308594 0 L 9.308594 -10.804688 L 13.792969 -10.804688 L 13.792969 -14.742188 L 0.589844 -14.742188 L 0.589844 -10.804688 L 5.074219 -10.804688 Z M 5.074219 0 "/></g></g></g><g fill="#000000" fill-opacity="1"><g transform="translate(354.721482, 222.935191)"><g><path d="M 10.363281 0 L 14.617188 0 L 14.617188 -14.742188 L 10.363281 -14.742188 L 10.363281 -9.457031 L 5.8125 -9.457031 L 5.8125 -14.742188 L 1.558594 -14.742188 L 1.558594 0 L 5.8125 0 L 5.8125 -5.539062 L 10.363281 -5.539062 Z M 10.363281 0 "/></g></g></g><g fill="#000000" fill-opacity="1"><g transform="translate(370.893239, 222.935191)"><g><path d="M 7.898438 0.316406 C 11.878906 0.316406 14.34375 -2.105469 14.34375 -6.066406 L 14.34375 -14.742188 L 10.109375 -14.742188 L 10.109375 -6.339844 C 10.109375 -4.589844 9.371094 -3.664062 7.898438 -3.664062 C 6.421875 -3.664062 5.6875 -4.589844 5.6875 -6.339844 L 5.6875 -14.742188 L 1.433594 -14.742188 L 1.433594 -6.066406 C 1.433594 -2.105469 3.917969 0.316406 7.898438 0.316406 Z M 7.898438 0.316406 "/></g></g></g><g fill="#000000" fill-opacity="1"><g transform="translate(386.685967, 222.935191)"><g><path d="M 1.558594 0 L 9.121094 0 C 12.109375 0 14.195312 -1.683594 14.195312 -4.105469 C 14.195312 -5.664062 13.351562 -6.929688 11.960938 -7.539062 C 13.101562 -8.191406 13.753906 -9.371094 13.753906 -10.78125 C 13.753906 -13.203125 11.816406 -14.742188 8.738281 -14.742188 L 1.558594 -14.742188 Z M 5.726562 -3.160156 L 5.726562 -5.917969 L 8.296875 -5.917969 C 9.308594 -5.917969 9.878906 -5.414062 9.878906 -4.550781 C 9.878906 -3.664062 9.308594 -3.160156 8.296875 -3.160156 Z M 5.726562 -8.949219 L 5.726562 -11.605469 L 7.941406 -11.605469 C 8.929688 -11.605469 9.476562 -11.121094 9.476562 -10.277344 C 9.476562 -9.414062 8.929688 -8.949219 7.941406 -8.949219 Z M 5.726562 -8.949219 "/></g></g></g><g fill="#000000" fill-opacity="1"><g transform="translate(401.489018, 222.935191)"><g><path d="M 2.863281 0.273438 C 4.171875 0.273438 5.097656 -0.652344 5.097656 -1.917969 C 5.097656 -3.179688 4.171875 -4.105469 2.863281 -4.105469 C 1.539062 -4.105469 0.609375 -3.179688 0.609375 -1.917969 C 0.609375 -0.652344 1.539062 0.273438 2.863281 0.273438 Z M 2.863281 0.273438 "/></g></g></g><g fill="#000000" fill-opacity="1"><g transform="translate(407.195458, 222.935191)"><g><path d="M 1.558594 0 L 5.8125 0 L 5.8125 -14.742188 L 1.558594 -14.742188 Z M 1.558594 0 "/></g></g></g><g fill="#000000" fill-opacity="1"><g transform="translate(414.565401, 222.935191)"><g><path d="M 8.738281 0.316406 C 13.4375 0.316406 16.765625 -2.863281 16.765625 -7.371094 C 16.765625 -11.878906 13.4375 -15.058594 8.738281 -15.058594 C 4.042969 -15.058594 0.714844 -11.878906 0.714844 -7.371094 C 0.714844 -2.863281 4.042969 0.316406 8.738281 0.316406 Z M 5.035156 -7.371094 C 5.035156 -9.582031 6.570312 -11.121094 8.738281 -11.121094 C 10.929688 -11.121094 12.445312 -9.582031 12.445312 -7.371094 C 12.445312 -5.160156 10.929688 -3.621094 8.738281 -3.621094 C 6.570312 -3.621094 5.035156 -5.160156 5.035156 -7.371094 Z M 5.035156 -7.371094 "/></g></g></g></svg>