<svg xmlns="http://www.w3.org/2000/svg" xmlns:xlink="http://www.w3.org/1999/xlink" width="1080" zoomAndPan="magnify" viewBox="0 0 810 119.999999" height="160" preserveAspectRatio="xMidYMid meet" version="1.0"><defs><g/></defs><g fill="#ffffff" fill-opacity="1"><g transform="translate(-1.663157, 85.874997)"><g><path d="M 5.765625 0 L 5.765625 -49.265625 L 22.765625 -49.265625 L 22.765625 -44.078125 L 22.953125 -44.078125 C 27.367188 -48.503906 32.078125 -50.71875 37.078125 -50.71875 C 39.503906 -50.71875 41.914062 -50.394531 44.3125 -49.75 C 46.71875 -49.113281 49.023438 -48.125 51.234375 -46.78125 C 53.441406 -45.4375 55.234375 -43.53125 56.609375 -41.0625 C 57.992188 -38.59375 58.6875 -35.726562 58.6875 -32.46875 L 58.6875 0 L 41.6875 0 L 41.6875 -27.859375 C 41.6875 -30.421875 40.867188 -32.660156 39.234375 -34.578125 C 37.597656 -36.492188 35.46875 -37.453125 32.84375 -37.453125 C 30.28125 -37.453125 27.957031 -36.457031 25.875 -34.46875 C 23.800781 -32.488281 22.765625 -30.285156 22.765625 -27.859375 L 22.765625 0 Z M 5.765625 0 "/></g></g></g><g fill="#ffffff" fill-opacity="1"><g transform="translate(57.020935, 85.874997)"><g><path d="M 43.125 -49.265625 L 62.71875 -49.265625 L 24.015625 24.96875 L 4.421875 24.96875 L 21.421875 -7.6875 L -1.921875 -49.265625 L 17.671875 -49.265625 L 31.40625 -24.015625 Z M 43.125 -49.265625 "/></g></g></g><g fill="#ffffff" fill-opacity="1"><g transform="translate(113.015712, 85.874997)"><g><path d="M 10.421875 -5.859375 C 4.941406 -10.722656 2.203125 -16.960938 2.203125 -24.578125 C 2.203125 -32.203125 5.050781 -38.460938 10.75 -43.359375 C 16.457031 -48.265625 23.503906 -50.71875 31.890625 -50.71875 C 40.148438 -50.71875 47.113281 -48.25 52.78125 -43.3125 C 58.445312 -38.382812 61.28125 -32.140625 61.28125 -24.578125 C 61.28125 -17.023438 58.507812 -10.800781 52.96875 -5.90625 C 47.425781 -1.007812 40.398438 1.4375 31.890625 1.4375 C 23.054688 1.4375 15.898438 -0.992188 10.421875 -5.859375 Z M 23.578125 -32.9375 C 21.367188 -30.757812 20.265625 -27.972656 20.265625 -24.578125 C 20.265625 -21.191406 21.320312 -18.425781 23.4375 -16.28125 C 25.550781 -14.132812 28.335938 -13.0625 31.796875 -13.0625 C 35.117188 -13.0625 37.851562 -14.148438 40 -16.328125 C 42.144531 -18.503906 43.21875 -21.257812 43.21875 -24.59375 C 43.21875 -27.976562 42.113281 -30.757812 39.90625 -32.9375 C 37.695312 -35.113281 34.992188 -36.203125 31.796875 -36.203125 C 28.523438 -36.203125 25.785156 -35.113281 23.578125 -32.9375 Z M 23.578125 -32.9375 "/></g></g></g><g fill="#ffffff" fill-opacity="1"><g transform="translate(171.699809, 85.874997)"><g><path d="M 3.546875 12.109375 L 17.484375 5.28125 C 20.046875 9.507812 24.492188 11.625 30.828125 11.625 C 33.773438 11.625 36.515625 10.675781 39.046875 8.78125 C 41.578125 6.894531 42.84375 4 42.84375 0.09375 L 42.84375 -3.546875 C 39.832031 -0.222656 34.453125 1.4375 26.703125 1.4375 C 19.597656 1.4375 13.738281 -1.070312 9.125 -6.09375 C 4.507812 -11.125 2.203125 -17.285156 2.203125 -24.578125 C 2.203125 -31.878906 4.507812 -38.0625 9.125 -43.125 C 13.738281 -48.1875 19.597656 -50.71875 26.703125 -50.71875 C 33.035156 -50.71875 38.316406 -48.765625 42.546875 -44.859375 L 42.84375 -44.859375 L 42.84375 -49.265625 L 59.84375 -49.265625 L 59.84375 1.34375 C 59.84375 9.34375 57.179688 15.519531 51.859375 19.875 C 46.546875 24.226562 39.535156 26.40625 30.828125 26.40625 C 16.742188 26.40625 7.648438 21.640625 3.546875 12.109375 Z M 23.578125 -32.9375 C 21.367188 -30.757812 20.265625 -27.972656 20.265625 -24.578125 C 20.265625 -21.191406 21.320312 -18.425781 23.4375 -16.28125 C 25.550781 -14.132812 28.335938 -13.0625 31.796875 -13.0625 C 35.117188 -13.0625 37.851562 -14.148438 40 -16.328125 C 42.144531 -18.503906 43.21875 -21.257812 43.21875 -24.59375 C 43.21875 -27.976562 42.113281 -30.757812 39.90625 -32.9375 C 37.695312 -35.113281 34.992188 -36.203125 31.796875 -36.203125 C 28.523438 -36.203125 25.785156 -35.113281 23.578125 -32.9375 Z M 23.578125 -32.9375 "/></g></g></g><g fill="#ffffff" fill-opacity="1"><g transform="translate(232.496933, 85.874997)"><g><path d="M 7.390625 -76.734375 C 9.378906 -78.722656 11.75 -79.71875 14.5 -79.71875 C 17.257812 -79.71875 19.628906 -78.722656 21.609375 -76.734375 C 23.597656 -74.753906 24.59375 -72.382812 24.59375 -69.625 C 24.59375 -66.875 23.597656 -64.503906 21.609375 -62.515625 C 19.628906 -60.535156 17.257812 -59.546875 14.5 -59.546875 C 11.75 -59.546875 9.378906 -60.535156 7.390625 -62.515625 C 5.410156 -64.503906 4.421875 -66.875 4.421875 -69.625 C 4.421875 -72.382812 5.410156 -74.753906 7.390625 -76.734375 Z M 5.765625 -49.265625 L 5.765625 0 L 22.765625 0 L 22.765625 -49.265625 Z M 5.765625 -49.265625 "/></g></g></g><g fill="#ffffff" fill-opacity="1"><g transform="translate(256.700202, 85.874997)"><g><path d="M 5.765625 0 L 5.765625 -49.265625 L 22.765625 -49.265625 L 22.765625 -44.078125 L 22.953125 -44.078125 C 27.367188 -48.503906 32.078125 -50.71875 37.078125 -50.71875 C 40.660156 -50.71875 44.019531 -49.976562 47.15625 -48.5 C 50.289062 -47.03125 52.660156 -44.757812 54.265625 -41.6875 C 59.265625 -47.707031 64.707031 -50.71875 70.59375 -50.71875 C 75.84375 -50.71875 80.351562 -49.242188 84.125 -46.296875 C 87.90625 -43.347656 89.796875 -38.738281 89.796875 -32.46875 L 89.796875 0 L 72.796875 0 L 72.796875 -27.859375 C 72.796875 -30.484375 72.078125 -32.675781 70.640625 -34.4375 C 69.203125 -36.195312 67.039062 -37.078125 64.15625 -37.078125 C 61.65625 -37.078125 59.75 -36.320312 58.4375 -34.8125 C 57.125 -33.3125 56.40625 -31.503906 56.28125 -29.390625 L 56.28125 0 L 39.28125 0 L 39.28125 -27.859375 C 39.28125 -30.484375 38.5625 -32.675781 37.125 -34.4375 C 35.6875 -36.195312 33.523438 -37.078125 30.640625 -37.078125 C 28.015625 -37.078125 26.046875 -36.257812 24.734375 -34.625 C 23.421875 -32.988281 22.765625 -31.050781 22.765625 -28.8125 L 22.765625 0 Z M 5.765625 0 "/></g></g></g><g fill="#ffffff" fill-opacity="1"><g transform="translate(346.503473, 85.874997)"><g><path d="M 7.390625 -76.734375 C 9.378906 -78.722656 11.75 -79.71875 14.5 -79.71875 C 17.257812 -79.71875 19.628906 -78.722656 21.609375 -76.734375 C 23.597656 -74.753906 24.59375 -72.382812 24.59375 -69.625 C 24.59375 -66.875 23.597656 -64.503906 21.609375 -62.515625 C 19.628906 -60.535156 17.257812 -59.546875 14.5 -59.546875 C 11.75 -59.546875 9.378906 -60.535156 7.390625 -62.515625 C 5.410156 -64.503906 4.421875 -66.875 4.421875 -69.625 C 4.421875 -72.382812 5.410156 -74.753906 7.390625 -76.734375 Z M 5.765625 -49.265625 L 5.765625 0 L 22.765625 0 L 22.765625 -49.265625 Z M 5.765625 -49.265625 "/></g></g></g><g fill="#ffffff" fill-opacity="1"><g transform="translate(370.706742, 85.874997)"><g><path d="M 16.71875 -20.546875 C 19.789062 -20.546875 22.394531 -19.472656 24.53125 -17.328125 C 26.675781 -15.191406 27.75 -12.585938 27.75 -9.515625 C 27.75 -6.503906 26.675781 -3.925781 24.53125 -1.78125 C 22.394531 0.363281 19.789062 1.4375 16.71875 1.4375 C 13.707031 1.4375 11.128906 0.363281 8.984375 -1.78125 C 6.835938 -3.925781 5.765625 -6.503906 5.765625 -9.515625 C 5.765625 -12.585938 6.835938 -15.191406 8.984375 -17.328125 C 11.128906 -19.472656 13.707031 -20.546875 16.71875 -20.546875 Z M 16.71875 -20.546875 "/></g></g></g><g fill="#ffffff" fill-opacity="1"><g transform="translate(399.424224, 85.874997)"><g><path d="M 3.546875 12.109375 L 17.484375 5.28125 C 20.046875 9.507812 24.492188 11.625 30.828125 11.625 C 33.773438 11.625 36.515625 10.675781 39.046875 8.78125 C 41.578125 6.894531 42.84375 4 42.84375 0.09375 L 42.84375 -3.546875 C 39.832031 -0.222656 34.453125 1.4375 26.703125 1.4375 C 19.597656 1.4375 13.738281 -1.070312 9.125 -6.09375 C 4.507812 -11.125 2.203125 -17.285156 2.203125 -24.578125 C 2.203125 -31.878906 4.507812 -38.0625 9.125 -43.125 C 13.738281 -48.1875 19.597656 -50.71875 26.703125 -50.71875 C 33.035156 -50.71875 38.316406 -48.765625 42.546875 -44.859375 L 42.84375 -44.859375 L 42.84375 -49.265625 L 59.84375 -49.265625 L 59.84375 1.34375 C 59.84375 9.34375 57.179688 15.519531 51.859375 19.875 C 46.546875 24.226562 39.535156 26.40625 30.828125 26.40625 C 16.742188 26.40625 7.648438 21.640625 3.546875 12.109375 Z M 23.578125 -32.9375 C 21.367188 -30.757812 20.265625 -27.972656 20.265625 -24.578125 C 20.265625 -21.191406 21.320312 -18.425781 23.4375 -16.28125 C 25.550781 -14.132812 28.335938 -13.0625 31.796875 -13.0625 C 35.117188 -13.0625 37.851562 -14.148438 40 -16.328125 C 42.144531 -18.503906 43.21875 -21.257812 43.21875 -24.59375 C 43.21875 -27.976562 42.113281 -30.757812 39.90625 -32.9375 C 37.695312 -35.113281 34.992188 -36.203125 31.796875 -36.203125 C 28.523438 -36.203125 25.785156 -35.113281 23.578125 -32.9375 Z M 23.578125 -32.9375 "/></g></g></g><g fill="#ffffff" fill-opacity="1"><g transform="translate(460.221324, 85.874997)"><g><path d="M 7.390625 -76.734375 C 9.378906 -78.722656 11.75 -79.71875 14.5 -79.71875 C 17.257812 -79.71875 19.628906 -78.722656 21.609375 -76.734375 C 23.597656 -74.753906 24.59375 -72.382812 24.59375 -69.625 C 24.59375 -66.875 23.597656 -64.503906 21.609375 -62.515625 C 19.628906 -60.535156 17.257812 -59.546875 14.5 -59.546875 C 11.75 -59.546875 9.378906 -60.535156 7.390625 -62.515625 C 5.410156 -64.503906 4.421875 -66.875 4.421875 -69.625 C 4.421875 -72.382812 5.410156 -74.753906 7.390625 -76.734375 Z M 5.765625 -49.265625 L 5.765625 0 L 22.765625 0 L 22.765625 -49.265625 Z M 5.765625 -49.265625 "/></g></g></g><g fill="#ffffff" fill-opacity="1"><g transform="translate(484.42457, 85.874997)"><g><path d="M 8.640625 -49.265625 L 8.640625 -67.609375 L 25.640625 -67.609375 L 25.640625 -49.265625 L 36.015625 -49.265625 L 36.015625 -36.3125 L 25.640625 -36.3125 L 25.640625 -20.65625 C 25.640625 -16.101562 26.921875 -13.828125 29.484375 -13.828125 C 30.128906 -13.828125 30.800781 -13.953125 31.5 -14.203125 C 32.207031 -14.460938 32.753906 -14.722656 33.140625 -14.984375 L 33.71875 -15.375 L 37.9375 -1.625 C 34.289062 0.414062 30.128906 1.4375 25.453125 1.4375 C 22.253906 1.4375 19.5 0.878906 17.1875 -0.234375 C 14.882812 -1.359375 13.140625 -2.863281 11.953125 -4.75 C 10.773438 -6.644531 9.925781 -8.628906 9.40625 -10.703125 C 8.894531 -12.785156 8.640625 -15.015625 8.640625 -17.390625 L 8.640625 -36.3125 L 1.53125 -36.3125 L 1.53125 -49.265625 Z M 8.640625 -49.265625 "/></g></g></g><g fill="#ffffff" fill-opacity="1"><g transform="translate(517.560203, 85.874997)"><g><path d="M 5.765625 0 L 5.765625 -82.59375 L 22.765625 -82.59375 L 22.765625 -44.078125 L 22.953125 -44.078125 C 27.367188 -48.503906 32.078125 -50.71875 37.078125 -50.71875 C 39.503906 -50.71875 41.914062 -50.394531 44.3125 -49.75 C 46.71875 -49.113281 49.023438 -48.125 51.234375 -46.78125 C 53.441406 -45.4375 55.234375 -43.53125 56.609375 -41.0625 C 57.992188 -38.59375 58.6875 -35.726562 58.6875 -32.46875 L 58.6875 0 L 41.6875 0 L 41.6875 -27.859375 C 41.6875 -30.421875 40.867188 -32.660156 39.234375 -34.578125 C 37.597656 -36.492188 35.46875 -37.453125 32.84375 -37.453125 C 30.28125 -37.453125 27.957031 -36.457031 25.875 -34.46875 C 23.800781 -32.488281 22.765625 -30.285156 22.765625 -27.859375 L 22.765625 0 Z M 5.765625 0 "/></g></g></g><g fill="#ffffff" fill-opacity="1"><g transform="translate(576.244313, 85.874997)"><g><path d="M 21.796875 -49.265625 L 21.796875 -25.84375 C 21.796875 -20.96875 22.53125 -17.503906 24 -15.453125 C 25.476562 -13.410156 27.976562 -12.390625 31.5 -12.390625 C 35.019531 -12.390625 37.515625 -13.410156 38.984375 -15.453125 C 40.460938 -17.503906 41.203125 -20.96875 41.203125 -25.84375 L 41.203125 -49.265625 L 58.203125 -49.265625 L 58.203125 -21.703125 C 58.203125 -13.503906 56.070312 -7.597656 51.8125 -3.984375 C 47.5625 -0.367188 40.789062 1.4375 31.5 1.4375 C 22.21875 1.4375 15.445312 -0.367188 11.1875 -3.984375 C 6.925781 -7.597656 4.796875 -13.503906 4.796875 -21.703125 L 4.796875 -49.265625 Z M 21.796875 -49.265625 "/></g></g></g><g fill="#ffffff" fill-opacity="1"><g transform="translate(634.448182, 85.874997)"><g><path d="M 56.46875 -43.125 C 61.082031 -38.0625 63.390625 -31.878906 63.390625 -24.578125 C 63.390625 -17.285156 61.082031 -11.125 56.46875 -6.09375 C 51.863281 -1.070312 46.007812 1.4375 38.90625 1.4375 C 32.375 1.4375 26.992188 -0.898438 22.765625 -5.578125 L 22.578125 -5.578125 L 22.578125 0 L 5.765625 0 L 5.765625 -82.59375 L 22.765625 -82.59375 L 22.765625 -44.5625 C 26.992188 -48.664062 32.375 -50.71875 38.90625 -50.71875 C 46.007812 -50.71875 51.863281 -48.1875 56.46875 -43.125 Z M 42.15625 -16.28125 C 44.269531 -18.425781 45.328125 -21.191406 45.328125 -24.578125 C 45.328125 -27.972656 44.222656 -30.757812 42.015625 -32.9375 C 39.804688 -35.113281 37.070312 -36.203125 33.8125 -36.203125 C 30.601562 -36.203125 27.894531 -35.113281 25.6875 -32.9375 C 23.476562 -30.757812 22.375 -27.976562 22.375 -24.59375 C 22.375 -21.257812 23.445312 -18.503906 25.59375 -16.328125 C 27.738281 -14.148438 30.476562 -13.0625 33.8125 -13.0625 C 37.269531 -13.0625 40.050781 -14.132812 42.15625 -16.28125 Z M 42.15625 -16.28125 "/></g></g></g><g fill="#ffffff" fill-opacity="1"><g transform="translate(695.245283, 85.874997)"><g><path d="M 16.71875 -20.546875 C 19.789062 -20.546875 22.394531 -19.472656 24.53125 -17.328125 C 26.675781 -15.191406 27.75 -12.585938 27.75 -9.515625 C 27.75 -6.503906 26.675781 -3.925781 24.53125 -1.78125 C 22.394531 0.363281 19.789062 1.4375 16.71875 1.4375 C 13.707031 1.4375 11.128906 0.363281 8.984375 -1.78125 C 6.835938 -3.925781 5.765625 -6.503906 5.765625 -9.515625 C 5.765625 -12.585938 6.835938 -15.191406 8.984375 -17.328125 C 11.128906 -19.472656 13.707031 -20.546875 16.71875 -20.546875 Z M 16.71875 -20.546875 "/></g></g></g><g fill="#ffffff" fill-opacity="1"><g transform="translate(723.962765, 85.874997)"><g><path d="M 7.390625 -76.734375 C 9.378906 -78.722656 11.75 -79.71875 14.5 -79.71875 C 17.257812 -79.71875 19.628906 -78.722656 21.609375 -76.734375 C 23.597656 -74.753906 24.59375 -72.382812 24.59375 -69.625 C 24.59375 -66.875 23.597656 -64.503906 21.609375 -62.515625 C 19.628906 -60.535156 17.257812 -59.546875 14.5 -59.546875 C 11.75 -59.546875 9.378906 -60.535156 7.390625 -62.515625 C 5.410156 -64.503906 4.421875 -66.875 4.421875 -69.625 C 4.421875 -72.382812 5.410156 -74.753906 7.390625 -76.734375 Z M 5.765625 -49.265625 L 5.765625 0 L 22.765625 0 L 22.765625 -49.265625 Z M 5.765625 -49.265625 "/></g></g></g><g fill="#ffffff" fill-opacity="1"><g transform="translate(748.16601, 85.874997)"><g><path d="M 10.421875 -5.859375 C 4.941406 -10.722656 2.203125 -16.960938 2.203125 -24.578125 C 2.203125 -32.203125 5.050781 -38.460938 10.75 -43.359375 C 16.457031 -48.265625 23.503906 -50.71875 31.890625 -50.71875 C 40.148438 -50.71875 47.113281 -48.25 52.78125 -43.3125 C 58.445312 -38.382812 61.28125 -32.140625 61.28125 -24.578125 C 61.28125 -17.023438 58.507812 -10.800781 52.96875 -5.90625 C 47.425781 -1.007812 40.398438 1.4375 31.890625 1.4375 C 23.054688 1.4375 15.898438 -0.992188 10.421875 -5.859375 Z M 23.578125 -32.9375 C 21.367188 -30.757812 20.265625 -27.972656 20.265625 -24.578125 C 20.265625 -21.191406 21.320312 -18.425781 23.4375 -16.28125 C 25.550781 -14.132812 28.335938 -13.0625 31.796875 -13.0625 C 35.117188 -13.0625 37.851562 -14.148438 40 -16.328125 C 42.144531 -18.503906 43.21875 -21.257812 43.21875 -24.59375 C 43.21875 -27.976562 42.113281 -30.757812 39.90625 -32.9375 C 37.695312 -35.113281 34.992188 -36.203125 31.796875 -36.203125 C 28.523438 -36.203125 25.785156 -35.113281 23.578125 -32.9375 Z M 23.578125 -32.9375 "/></g></g></g></svg>