<svg xmlns="http://www.w3.org/2000/svg" xmlns:xlink="http://www.w3.org/1999/xlink" width="1080" zoomAndPan="magnify" viewBox="0 0 810 165.000002" height="220" preserveAspectRatio="xMidYMid meet" version="1.0"><defs><g/></defs><g fill="#ffffff" fill-opacity="1"><g transform="translate(2.473804, 107.722145)"><g><path d="M 5.703125 0 L 5.703125 -48.78125 L 22.53125 -48.78125 L 22.53125 -43.640625 L 22.71875 -43.640625 C 27.09375 -48.015625 31.753906 -50.203125 36.703125 -50.203125 C 39.109375 -50.203125 41.5 -49.882812 43.875 -49.25 C 46.25 -48.613281 48.53125 -47.628906 50.71875 -46.296875 C 52.90625 -44.972656 54.679688 -43.085938 56.046875 -40.640625 C 57.410156 -38.203125 58.09375 -35.367188 58.09375 -32.140625 L 58.09375 0 L 41.265625 0 L 41.265625 -27.578125 C 41.265625 -30.109375 40.457031 -32.320312 38.84375 -34.21875 C 37.226562 -36.125 35.117188 -37.078125 32.515625 -37.078125 C 29.984375 -37.078125 27.6875 -36.09375 25.625 -34.125 C 23.5625 -32.164062 22.53125 -29.984375 22.53125 -27.578125 L 22.53125 0 Z M 5.703125 0 "/></g></g></g><g fill="#ffffff" fill-opacity="1"><g transform="translate(60.562339, 107.722145)"><g><path d="M 42.6875 -48.78125 L 62.09375 -48.78125 L 23.765625 24.71875 L 4.375 24.71875 L 21.203125 -7.609375 L -1.90625 -48.78125 L 17.5 -48.78125 L 31.09375 -23.765625 Z M 42.6875 -48.78125 "/></g></g></g><g fill="#ffffff" fill-opacity="1"><g transform="translate(115.988849, 107.722145)"><g><path d="M 10.3125 -5.796875 C 4.894531 -10.617188 2.1875 -16.800781 2.1875 -24.34375 C 2.1875 -31.882812 5.003906 -38.078125 10.640625 -42.921875 C 16.285156 -47.773438 23.257812 -50.203125 31.5625 -50.203125 C 39.738281 -50.203125 46.628906 -47.757812 52.234375 -42.875 C 57.847656 -38 60.65625 -31.820312 60.65625 -24.34375 C 60.65625 -16.863281 57.914062 -10.695312 52.4375 -5.84375 C 46.957031 -1 40 1.421875 31.5625 1.421875 C 22.8125 1.421875 15.726562 -0.984375 10.3125 -5.796875 Z M 23.34375 -32.609375 C 21.15625 -30.453125 20.0625 -27.691406 20.0625 -24.328125 C 20.0625 -20.972656 21.109375 -18.234375 23.203125 -16.109375 C 25.296875 -13.992188 28.050781 -12.9375 31.46875 -12.9375 C 34.769531 -12.9375 37.476562 -14.007812 39.59375 -16.15625 C 41.71875 -18.3125 42.78125 -21.039062 42.78125 -24.34375 C 42.78125 -27.695312 41.6875 -30.453125 39.5 -32.609375 C 37.3125 -34.765625 34.632812 -35.84375 31.46875 -35.84375 C 28.238281 -35.84375 25.53125 -34.765625 23.34375 -32.609375 Z M 23.34375 -32.609375 "/></g></g></g><g fill="#ffffff" fill-opacity="1"><g transform="translate(174.077378, 107.722145)"><g><path d="M 3.515625 11.984375 L 17.296875 5.234375 C 19.835938 9.410156 24.242188 11.5 30.515625 11.5 C 33.429688 11.5 36.140625 10.5625 38.640625 8.6875 C 41.148438 6.820312 42.40625 3.957031 42.40625 0.09375 L 42.40625 -3.515625 C 39.425781 -0.222656 34.101562 1.421875 26.4375 1.421875 C 19.394531 1.421875 13.59375 -1.0625 9.03125 -6.03125 C 4.46875 -11.007812 2.1875 -17.109375 2.1875 -24.328125 C 2.1875 -31.554688 4.46875 -37.675781 9.03125 -42.6875 C 13.59375 -47.695312 19.394531 -50.203125 26.4375 -50.203125 C 32.707031 -50.203125 37.9375 -48.269531 42.125 -44.40625 L 42.40625 -44.40625 L 42.40625 -48.78125 L 59.234375 -48.78125 L 59.234375 1.328125 C 59.234375 9.253906 56.601562 15.367188 51.34375 19.671875 C 46.082031 23.984375 39.140625 26.140625 30.515625 26.140625 C 16.578125 26.140625 7.578125 21.421875 3.515625 11.984375 Z M 23.34375 -32.609375 C 21.15625 -30.453125 20.0625 -27.691406 20.0625 -24.328125 C 20.0625 -20.972656 21.109375 -18.234375 23.203125 -16.109375 C 25.296875 -13.992188 28.050781 -12.9375 31.46875 -12.9375 C 34.769531 -12.9375 37.476562 -14.007812 39.59375 -16.15625 C 41.71875 -18.3125 42.78125 -21.039062 42.78125 -24.34375 C 42.78125 -27.695312 41.6875 -30.453125 39.5 -32.609375 C 37.3125 -34.765625 34.632812 -35.84375 31.46875 -35.84375 C 28.238281 -35.84375 25.53125 -34.765625 23.34375 -32.609375 Z M 23.34375 -32.609375 "/></g></g></g><g fill="#ffffff" fill-opacity="1"><g transform="translate(234.257501, 107.722145)"><g><path d="M 7.3125 -75.96875 C 9.28125 -77.9375 11.625 -78.921875 14.34375 -78.921875 C 17.070312 -78.921875 19.421875 -77.9375 21.390625 -75.96875 C 23.359375 -74 24.34375 -71.648438 24.34375 -68.921875 C 24.34375 -66.203125 23.359375 -63.859375 21.390625 -61.890625 C 19.421875 -59.929688 17.070312 -58.953125 14.34375 -58.953125 C 11.625 -58.953125 9.28125 -59.929688 7.3125 -61.890625 C 5.351562 -63.859375 4.375 -66.203125 4.375 -68.921875 C 4.375 -71.648438 5.351562 -74 7.3125 -75.96875 Z M 5.703125 -48.78125 L 5.703125 0 L 22.53125 0 L 22.53125 -48.78125 Z M 5.703125 -48.78125 "/></g></g></g><g fill="#ffffff" fill-opacity="1"><g transform="translate(258.215093, 107.722145)"><g><path d="M 5.703125 0 L 5.703125 -48.78125 L 22.53125 -48.78125 L 22.53125 -43.640625 L 22.71875 -43.640625 C 27.09375 -48.015625 31.753906 -50.203125 36.703125 -50.203125 C 40.253906 -50.203125 43.582031 -49.472656 46.6875 -48.015625 C 49.789062 -46.554688 52.132812 -44.304688 53.71875 -41.265625 C 58.664062 -47.222656 64.050781 -50.203125 69.875 -50.203125 C 75.070312 -50.203125 79.539062 -48.742188 83.28125 -45.828125 C 87.019531 -42.910156 88.890625 -38.347656 88.890625 -32.140625 L 88.890625 0 L 72.0625 0 L 72.0625 -27.578125 C 72.0625 -30.171875 71.347656 -32.335938 69.921875 -34.078125 C 68.503906 -35.828125 66.367188 -36.703125 63.515625 -36.703125 C 61.035156 -36.703125 59.144531 -35.957031 57.84375 -34.46875 C 56.550781 -32.976562 55.84375 -31.1875 55.71875 -29.09375 L 55.71875 0 L 38.890625 0 L 38.890625 -27.578125 C 38.890625 -30.171875 38.175781 -32.335938 36.75 -34.078125 C 35.320312 -35.828125 33.179688 -36.703125 30.328125 -36.703125 C 27.734375 -36.703125 25.785156 -35.890625 24.484375 -34.265625 C 23.179688 -32.648438 22.53125 -30.738281 22.53125 -28.53125 L 22.53125 0 Z M 5.703125 0 "/></g></g></g><g fill="#ffffff" fill-opacity="1"><g transform="translate(347.107031, 107.722145)"><g><path d="M 7.3125 -75.96875 C 9.28125 -77.9375 11.625 -78.921875 14.34375 -78.921875 C 17.070312 -78.921875 19.421875 -77.9375 21.390625 -75.96875 C 23.359375 -74 24.34375 -71.648438 24.34375 -68.921875 C 24.34375 -66.203125 23.359375 -63.859375 21.390625 -61.890625 C 19.421875 -59.929688 17.070312 -58.953125 14.34375 -58.953125 C 11.625 -58.953125 9.28125 -59.929688 7.3125 -61.890625 C 5.351562 -63.859375 4.375 -66.203125 4.375 -68.921875 C 4.375 -71.648438 5.351562 -74 7.3125 -75.96875 Z M 5.703125 -48.78125 L 5.703125 0 L 22.53125 0 L 22.53125 -48.78125 Z M 5.703125 -48.78125 "/></g></g></g><g fill="#ffffff" fill-opacity="1"><g transform="translate(371.064623, 107.722145)"><g><path d="M 16.546875 -20.34375 C 19.585938 -20.34375 22.171875 -19.28125 24.296875 -17.15625 C 26.421875 -15.03125 27.484375 -12.445312 27.484375 -9.40625 C 27.484375 -6.425781 26.421875 -3.875 24.296875 -1.75 C 22.171875 0.363281 19.585938 1.421875 16.546875 1.421875 C 13.566406 1.421875 11.015625 0.363281 8.890625 -1.75 C 6.765625 -3.875 5.703125 -6.425781 5.703125 -9.40625 C 5.703125 -12.445312 6.765625 -15.03125 8.890625 -17.15625 C 11.015625 -19.28125 13.566406 -20.34375 16.546875 -20.34375 Z M 16.546875 -20.34375 "/></g></g></g><g fill="#ffffff" fill-opacity="1"><g transform="translate(399.490603, 107.722145)"><g><path d="M 3.515625 11.984375 L 17.296875 5.234375 C 19.835938 9.410156 24.242188 11.5 30.515625 11.5 C 33.429688 11.5 36.140625 10.5625 38.640625 8.6875 C 41.148438 6.820312 42.40625 3.957031 42.40625 0.09375 L 42.40625 -3.515625 C 39.425781 -0.222656 34.101562 1.421875 26.4375 1.421875 C 19.394531 1.421875 13.59375 -1.0625 9.03125 -6.03125 C 4.46875 -11.007812 2.1875 -17.109375 2.1875 -24.328125 C 2.1875 -31.554688 4.46875 -37.675781 9.03125 -42.6875 C 13.59375 -47.695312 19.394531 -50.203125 26.4375 -50.203125 C 32.707031 -50.203125 37.9375 -48.269531 42.125 -44.40625 L 42.40625 -44.40625 L 42.40625 -48.78125 L 59.234375 -48.78125 L 59.234375 1.328125 C 59.234375 9.253906 56.601562 15.367188 51.34375 19.671875 C 46.082031 23.984375 39.140625 26.140625 30.515625 26.140625 C 16.578125 26.140625 7.578125 21.421875 3.515625 11.984375 Z M 23.34375 -32.609375 C 21.15625 -30.453125 20.0625 -27.691406 20.0625 -24.328125 C 20.0625 -20.972656 21.109375 -18.234375 23.203125 -16.109375 C 25.296875 -13.992188 28.050781 -12.9375 31.46875 -12.9375 C 34.769531 -12.9375 37.476562 -14.007812 39.59375 -16.15625 C 41.71875 -18.3125 42.78125 -21.039062 42.78125 -24.34375 C 42.78125 -27.695312 41.6875 -30.453125 39.5 -32.609375 C 37.3125 -34.765625 34.632812 -35.84375 31.46875 -35.84375 C 28.238281 -35.84375 25.53125 -34.765625 23.34375 -32.609375 Z M 23.34375 -32.609375 "/></g></g></g><g fill="#ffffff" fill-opacity="1"><g transform="translate(459.670703, 107.722145)"><g><path d="M 7.3125 -75.96875 C 9.28125 -77.9375 11.625 -78.921875 14.34375 -78.921875 C 17.070312 -78.921875 19.421875 -77.9375 21.390625 -75.96875 C 23.359375 -74 24.34375 -71.648438 24.34375 -68.921875 C 24.34375 -66.203125 23.359375 -63.859375 21.390625 -61.890625 C 19.421875 -59.929688 17.070312 -58.953125 14.34375 -58.953125 C 11.625 -58.953125 9.28125 -59.929688 7.3125 -61.890625 C 5.351562 -63.859375 4.375 -66.203125 4.375 -68.921875 C 4.375 -71.648438 5.351562 -74 7.3125 -75.96875 Z M 5.703125 -48.78125 L 5.703125 0 L 22.53125 0 L 22.53125 -48.78125 Z M 5.703125 -48.78125 "/></g></g></g><g fill="#ffffff" fill-opacity="1"><g transform="translate(483.628273, 107.722145)"><g><path d="M 8.5625 -48.78125 L 8.5625 -66.9375 L 25.390625 -66.9375 L 25.390625 -48.78125 L 35.65625 -48.78125 L 35.65625 -35.9375 L 25.390625 -35.9375 L 25.390625 -20.4375 C 25.390625 -15.9375 26.65625 -13.6875 29.1875 -13.6875 C 29.820312 -13.6875 30.488281 -13.8125 31.1875 -14.0625 C 31.882812 -14.320312 32.421875 -14.578125 32.796875 -14.828125 L 33.375 -15.21875 L 37.5625 -1.609375 C 33.945312 0.410156 29.828125 1.421875 25.203125 1.421875 C 22.023438 1.421875 19.296875 0.867188 17.015625 -0.234375 C 14.734375 -1.347656 13.003906 -2.835938 11.828125 -4.703125 C 10.660156 -6.578125 9.820312 -8.539062 9.3125 -10.59375 C 8.8125 -12.65625 8.5625 -14.859375 8.5625 -17.203125 L 8.5625 -35.9375 L 1.515625 -35.9375 L 1.515625 -48.78125 Z M 8.5625 -48.78125 "/></g></g></g><g fill="#ffffff" fill-opacity="1"><g transform="translate(516.427566, 107.722145)"><g><path d="M 5.703125 0 L 5.703125 -81.765625 L 22.53125 -81.765625 L 22.53125 -43.640625 L 22.71875 -43.640625 C 27.09375 -48.015625 31.753906 -50.203125 36.703125 -50.203125 C 39.109375 -50.203125 41.5 -49.882812 43.875 -49.25 C 46.25 -48.613281 48.53125 -47.628906 50.71875 -46.296875 C 52.90625 -44.972656 54.679688 -43.085938 56.046875 -40.640625 C 57.410156 -38.203125 58.09375 -35.367188 58.09375 -32.140625 L 58.09375 0 L 41.265625 0 L 41.265625 -27.578125 C 41.265625 -30.109375 40.457031 -32.320312 38.84375 -34.21875 C 37.226562 -36.125 35.117188 -37.078125 32.515625 -37.078125 C 29.984375 -37.078125 27.6875 -36.09375 25.625 -34.125 C 23.5625 -32.164062 22.53125 -29.984375 22.53125 -27.578125 L 22.53125 0 Z M 5.703125 0 "/></g></g></g><g fill="#ffffff" fill-opacity="1"><g transform="translate(574.516095, 107.722145)"><g><path d="M 21.578125 -48.78125 L 21.578125 -25.578125 C 21.578125 -20.753906 22.304688 -17.328125 23.765625 -15.296875 C 25.222656 -13.273438 27.695312 -12.265625 31.1875 -12.265625 C 34.675781 -12.265625 37.144531 -13.273438 38.59375 -15.296875 C 40.050781 -17.328125 40.78125 -20.753906 40.78125 -25.578125 L 40.78125 -48.78125 L 57.625 -48.78125 L 57.625 -21.484375 C 57.625 -13.367188 55.515625 -7.519531 51.296875 -3.9375 C 47.078125 -0.363281 40.375 1.421875 31.1875 1.421875 C 22 1.421875 15.296875 -0.363281 11.078125 -3.9375 C 6.859375 -7.519531 4.75 -13.367188 4.75 -21.484375 L 4.75 -48.78125 Z M 21.578125 -48.78125 "/></g></g></g><g fill="#ffffff" fill-opacity="1"><g transform="translate(632.129279, 107.722145)"><g><path d="M 55.90625 -42.6875 C 60.46875 -37.675781 62.75 -31.554688 62.75 -24.328125 C 62.75 -17.109375 60.46875 -11.007812 55.90625 -6.03125 C 51.34375 -1.0625 45.539062 1.421875 38.5 1.421875 C 32.039062 1.421875 26.71875 -0.890625 22.53125 -5.515625 L 22.34375 -5.515625 L 22.34375 0 L 5.703125 0 L 5.703125 -81.765625 L 22.53125 -81.765625 L 22.53125 -44.109375 C 26.71875 -48.171875 32.039062 -50.203125 38.5 -50.203125 C 45.539062 -50.203125 51.34375 -47.695312 55.90625 -42.6875 Z M 41.734375 -16.109375 C 43.828125 -18.234375 44.875 -20.972656 44.875 -24.328125 C 44.875 -27.691406 43.78125 -30.453125 41.59375 -32.609375 C 39.40625 -34.765625 36.695312 -35.84375 33.46875 -35.84375 C 30.300781 -35.84375 27.625 -34.765625 25.4375 -32.609375 C 23.25 -30.453125 22.15625 -27.695312 22.15625 -24.34375 C 22.15625 -21.039062 23.21875 -18.3125 25.34375 -16.15625 C 27.46875 -14.007812 30.175781 -12.9375 33.46875 -12.9375 C 36.894531 -12.9375 39.648438 -13.992188 41.734375 -16.109375 Z M 41.734375 -16.109375 "/></g></g></g><g fill="#ffffff" fill-opacity="1"><g transform="translate(692.309379, 107.722145)"><g><path d="M 16.546875 -20.34375 C 19.585938 -20.34375 22.171875 -19.28125 24.296875 -17.15625 C 26.421875 -15.03125 27.484375 -12.445312 27.484375 -9.40625 C 27.484375 -6.425781 26.421875 -3.875 24.296875 -1.75 C 22.171875 0.363281 19.585938 1.421875 16.546875 1.421875 C 13.566406 1.421875 11.015625 0.363281 8.890625 -1.75 C 6.765625 -3.875 5.703125 -6.425781 5.703125 -9.40625 C 5.703125 -12.445312 6.765625 -15.03125 8.890625 -17.15625 C 11.015625 -19.28125 13.566406 -20.34375 16.546875 -20.34375 Z M 16.546875 -20.34375 "/></g></g></g><g fill="#ffffff" fill-opacity="1"><g transform="translate(720.735381, 107.722145)"><g><path d="M 7.3125 -75.96875 C 9.28125 -77.9375 11.625 -78.921875 14.34375 -78.921875 C 17.070312 -78.921875 19.421875 -77.9375 21.390625 -75.96875 C 23.359375 -74 24.34375 -71.648438 24.34375 -68.921875 C 24.34375 -66.203125 23.359375 -63.859375 21.390625 -61.890625 C 19.421875 -59.929688 17.070312 -58.953125 14.34375 -58.953125 C 11.625 -58.953125 9.28125 -59.929688 7.3125 -61.890625 C 5.351562 -63.859375 4.375 -66.203125 4.375 -68.921875 C 4.375 -71.648438 5.351562 -74 7.3125 -75.96875 Z M 5.703125 -48.78125 L 5.703125 0 L 22.53125 0 L 22.53125 -48.78125 Z M 5.703125 -48.78125 "/></g></g></g><g fill="#ffffff" fill-opacity="1"><g transform="translate(744.692951, 107.722145)"><g><path d="M 10.3125 -5.796875 C 4.894531 -10.617188 2.1875 -16.800781 2.1875 -24.34375 C 2.1875 -31.882812 5.003906 -38.078125 10.640625 -42.921875 C 16.285156 -47.773438 23.257812 -50.203125 31.5625 -50.203125 C 39.738281 -50.203125 46.628906 -47.757812 52.234375 -42.875 C 57.847656 -38 60.65625 -31.820312 60.65625 -24.34375 C 60.65625 -16.863281 57.914062 -10.695312 52.4375 -5.84375 C 46.957031 -1 40 1.421875 31.5625 1.421875 C 22.8125 1.421875 15.726562 -0.984375 10.3125 -5.796875 Z M 23.34375 -32.609375 C 21.15625 -30.453125 20.0625 -27.691406 20.0625 -24.328125 C 20.0625 -20.972656 21.109375 -18.234375 23.203125 -16.109375 C 25.296875 -13.992188 28.050781 -12.9375 31.46875 -12.9375 C 34.769531 -12.9375 37.476562 -14.007812 39.59375 -16.15625 C 41.71875 -18.3125 42.78125 -21.039062 42.78125 -24.34375 C 42.78125 -27.695312 41.6875 -30.453125 39.5 -32.609375 C 37.3125 -34.765625 34.632812 -35.84375 31.46875 -35.84375 C 28.238281 -35.84375 25.53125 -34.765625 23.34375 -32.609375 Z M 23.34375 -32.609375 "/></g></g></g></svg>